<svg width="17" height="17" viewBox="0 0 17 17" fill="none" xmlns="http://www.w3.org/2000/svg">
<path d="M1.86774 16.0066C1.74634 16.0064 1.62631 15.981 1.51529 15.9318C1.40427 15.8827 1.30468 15.8111 1.22286 15.7214C1.13956 15.6325 1.07599 15.5269 1.03634 15.4117C0.996676 15.2965 0.981818 15.1742 0.992735 15.0529L1.20711 12.6956L11.1104 2.79588L14.2052 5.88988L4.30461 15.7888L1.94736 16.0031C1.92089 16.0056 1.89432 16.0067 1.86774 16.0066ZM14.823 5.27126L11.729 2.17726L13.5849 0.321384C13.6661 0.24003 13.7626 0.175491 13.8688 0.131457C13.9751 0.0874231 14.0889 0.0647583 14.2039 0.0647583C14.3189 0.0647583 14.4328 0.0874231 14.539 0.131457C14.6452 0.175491 14.7417 0.24003 14.823 0.321384L16.6789 2.17726C16.7602 2.25852 16.8248 2.35503 16.8688 2.46125C16.9128 2.56747 16.9355 2.68133 16.9355 2.79632C16.9355 2.91131 16.9128 3.02517 16.8688 3.13139C16.8248 3.23762 16.7602 3.33412 16.6789 3.41538L14.8239 5.27038L14.823 5.27126Z" fill="#C5CCEC"/>
</svg>
