<svg width="14" height="14" viewBox="0 0 14 14" fill="none" xmlns="http://www.w3.org/2000/svg">
<path d="M10.6 0.700001C11.2886 0.699962 11.9513 0.963093 12.4524 1.43556C12.9535 1.90802 13.255 2.5541 13.2955 3.2416L13.3 3.4V7.3411C13.2998 7.7637 13.1511 8.17278 12.8797 8.4967L12.7726 8.6137L8.61365 12.7726C8.31483 13.0714 7.9204 13.2556 7.49945 13.2928L7.34105 13.3H3.39995C2.71126 13.3 2.04859 13.0369 1.54752 12.5644C1.04644 12.092 0.744854 11.4459 0.704451 10.7584L0.699951 10.6V3.4C0.699913 2.71131 0.963044 2.04864 1.43551 1.54757C1.90797 1.04649 2.55405 0.744904 3.24155 0.704501L3.39995 0.700001H10.6ZM10.6 1.6H3.39995C2.94583 1.59986 2.50844 1.77137 2.17546 2.08015C1.84247 2.38893 1.63851 2.81216 1.60445 3.265L1.59995 3.4V10.6C1.59981 11.0541 1.77132 11.4915 2.0801 11.8245C2.38888 12.1575 2.81211 12.3614 3.26495 12.3955L3.39995 12.4H6.99995V9.7C6.99991 9.01131 7.26304 8.34864 7.73551 7.84757C8.20797 7.34649 8.85405 7.0449 9.54155 7.0045L9.69995 7H12.4V3.4C12.4001 2.94588 12.2286 2.50849 11.9198 2.17551C11.611 1.84252 11.1878 1.63856 10.735 1.6045L10.6 1.6ZM12.2047 7.9009L9.69995 7.9C9.24583 7.89986 8.80844 8.07137 8.47546 8.38015C8.14248 8.68893 7.93851 9.11216 7.90445 9.565L7.89995 9.7V12.2029L7.97735 12.1363L12.1363 7.9774C12.1606 7.9531 12.1831 7.9279 12.2038 7.9009H12.2047Z" fill="#ACB7EB"/>
</svg>
